<svg width="320" height="56" viewBox="0 0 320 56" fill="none" xmlns="http://www.w3.org/2000/svg">
  <path
    d="M277.824 0C281.7 0 285.337 1.87184 287.59 5.02539L303.643 27.5H320V28.5H303.643L287.59 50.9746C285.337 54.1282 281.7 56 277.824 56H42.1758C38.3004 56 34.6627 54.1282 32.4102 50.9746L16.3574 28.5H0V27.5H16.3574L32.4102 5.02539C34.6627 1.87184 38.3004 0 42.1758 0H277.824ZM42.6162 1C38.6965 1.00005 35.0241 2.91464 32.7793 6.12793L17.5 28L32.7793 49.8721C35.0241 53.0854 38.6965 54.9999 42.6162 55H277.271C281.177 54.9999 284.838 53.0998 287.085 49.9062L302.5 28L287.085 6.09375C284.838 2.9002 281.177 1.00015 277.271 1H42.6162Z"
    fill="black" />
</svg>